#define earth_big_width 62
#define earth_big_height 64
static unsigned char earth_big_bits[] = {
   0x00, 0x00, 0x00, 0x00, 0x00, 0x00, 0x00, 0x00, 0x00, 0x00, 0x00, 0x00,
   0x00, 0x00, 0x00, 0x00, 0x00, 0x00, 0x00, 0x00, 0x00, 0x00, 0x00, 0x00,
   0x00, 0x00, 0x00, 0x00, 0x00, 0x00, 0x00, 0x00, 0x00, 0x00, 0x00, 0xfe,
   0x3f, 0x00, 0x00, 0x00, 0x00, 0x00, 0xc0, 0x23, 0xe6, 0x00, 0x00, 0x00,
   0x00, 0x00, 0xf0, 0xa1, 0x83, 0x0f, 0x00, 0x00, 0x00, 0x00, 0x1e, 0xe0,
   0x00, 0x18, 0x00, 0x00, 0x00, 0x00, 0xcb, 0x43, 0x00, 0x7c, 0x00, 0x00,
   0x00, 0xc0, 0xe9, 0x02, 0x00, 0xc4, 0x01, 0x00, 0x00, 0x60, 0x38, 0x02,
   0x00, 0x04, 0x01, 0x00, 0x00, 0x30, 0xe0, 0x03, 0x00, 0xc6, 0x03, 0x00,
   0x00, 0x18, 0x30, 0x00, 0x00, 0x26, 0x07, 0x00, 0x00, 0x0c, 0x18, 0x00,
   0x00, 0x3c, 0x0c, 0x00, 0x00, 0x06, 0x0e, 0x00, 0x00, 0x18, 0x18, 0x00,
   0x00, 0x02, 0x07, 0x00, 0x00, 0x80, 0x33, 0x00, 0x80, 0x83, 0x01, 0x00,
   0x00, 0xe0, 0x22, 0x00, 0x80, 0xf9, 0x01, 0x00, 0x00, 0x20, 0x7e, 0x00,
   0xc0, 0x68, 0x00, 0x00, 0x00, 0x20, 0xc0, 0x00, 0x40, 0x0c, 0x00, 0x00,
   0x00, 0x20, 0x80, 0x00, 0x40, 0x0e, 0x00, 0x00, 0x00, 0x30, 0x80, 0x01,
   0x60, 0x01, 0x00, 0x00, 0x00, 0x18, 0x80, 0x01, 0x20, 0x03, 0x00, 0x00,
   0x00, 0x08, 0x00, 0x01, 0x20, 0x06, 0x00, 0x00, 0x00, 0x08, 0x00, 0x03,
   0x70, 0x04, 0x00, 0x00, 0x00, 0x08, 0x00, 0x02, 0xd0, 0x04, 0x00, 0x00,
   0x00, 0x08, 0x00, 0x02, 0x90, 0x07, 0x00, 0x00, 0x00, 0x38, 0x00, 0x02,
   0x10, 0x87, 0x01, 0x00, 0x00, 0x60, 0x00, 0x06, 0x18, 0xe6, 0x3f, 0x00,
   0x00, 0x40, 0x00, 0x04, 0x18, 0x20, 0x26, 0x00, 0x00, 0x40, 0x1e, 0x04,
   0x08, 0x20, 0x60, 0x00, 0x00, 0xc0, 0x37, 0x04, 0x08, 0x20, 0xc0, 0x03,
   0x00, 0x80, 0x21, 0x04, 0x08, 0x30, 0x00, 0x02, 0x00, 0x00, 0x60, 0x04,
   0x08, 0x30, 0x00, 0x06, 0x00, 0x00, 0x40, 0x04, 0x08, 0x10, 0x00, 0x1c,
   0x00, 0x00, 0x40, 0x04, 0x08, 0x30, 0x00, 0xf0, 0x01, 0x00, 0x40, 0x04,
   0x18, 0x30, 0x00, 0x00, 0x03, 0x00, 0x40, 0x04, 0x10, 0x20, 0x00, 0x00,
   0x06, 0x00, 0x40, 0x06, 0x10, 0x20, 0x00, 0x00, 0x03, 0x00, 0x40, 0x02,
   0x10, 0x60, 0x00, 0x80, 0x01, 0x00, 0x40, 0x02, 0x30, 0x40, 0x00, 0x80,
   0x01, 0x00, 0x60, 0x02, 0x20, 0xc0, 0x01, 0x80, 0x00, 0x00, 0x20, 0x03,
   0x60, 0x00, 0x03, 0x80, 0x00, 0x00, 0x18, 0x01, 0x40, 0x00, 0x02, 0xc0,
   0x00, 0x00, 0x98, 0x01, 0x40, 0x00, 0x02, 0x78, 0x00, 0x00, 0x88, 0x00,
   0xc0, 0x00, 0x02, 0x0c, 0x00, 0x00, 0xc8, 0x00, 0x80, 0x01, 0x02, 0x04,
   0x00, 0x00, 0x68, 0x00, 0x80, 0x01, 0x06, 0x06, 0x00, 0x00, 0x38, 0x00,
   0x00, 0x03, 0x06, 0x06, 0x00, 0x00, 0x1c, 0x00, 0x00, 0x0e, 0x8c, 0x03,
   0x00, 0x00, 0x0c, 0x00, 0x00, 0x0c, 0x8c, 0x00, 0x00, 0x00, 0x04, 0x00,
   0x00, 0x18, 0x98, 0x00, 0x00, 0x00, 0x06, 0x00, 0x00, 0x30, 0x98, 0x00,
   0x00, 0x00, 0x03, 0x00, 0x00, 0x60, 0xb0, 0x00, 0x00, 0xc0, 0x01, 0x00,
   0x00, 0x80, 0xf1, 0x00, 0x00, 0x60, 0x00, 0x00, 0x00, 0x00, 0xc6, 0x00,
   0x00, 0x3c, 0x00, 0x00, 0x00, 0x00, 0x0c, 0x00, 0x00, 0x0e, 0x00, 0x00,
   0x00, 0x00, 0xf8, 0x00, 0xc0, 0x03, 0x00, 0x00, 0x00, 0x00, 0x80, 0x1f,
   0x7c, 0x00, 0x00, 0x00, 0x00, 0x00, 0x00, 0xf8, 0x07, 0x00, 0x00, 0x00,
   0x00, 0x00, 0x00, 0x00, 0x00, 0x00, 0x00, 0x00, 0x00, 0x00, 0x00, 0x00,
   0x00, 0x00, 0x00, 0x00, 0x00, 0x00, 0x00, 0x00, 0x00, 0x00, 0x00, 0x00,
   0x00, 0x00, 0x00, 0x00, 0x00, 0x00, 0x00, 0x00 };
