#define earth_landscape_width 63
#define earth_landscape_height 64
static unsigned char earth_landscape_bits[] = {
   0x00, 0x00, 0x00, 0x00, 0x00, 0x00, 0x00, 0x00, 0x00, 0x00, 0x00, 0x00,
   0x00, 0x00, 0x00, 0x00, 0x00, 0x00, 0x00, 0x00, 0x00, 0x00, 0x00, 0x00,
   0x00, 0x00, 0x00, 0x00, 0x00, 0x00, 0x00, 0x00, 0x00, 0x00, 0x00, 0xf8,
   0x7f, 0x00, 0x00, 0x00, 0x00, 0x00, 0x80, 0x47, 0x8c, 0x01, 0x00, 0x00,
   0x00, 0x00, 0xe0, 0x43, 0x06, 0x0e, 0x00, 0x00, 0x00, 0x00, 0x3c, 0xc0,
   0x01, 0x30, 0x00, 0x00, 0x00, 0x00, 0x16, 0x83, 0x00, 0x58, 0x00, 0x00,
   0x00, 0x80, 0xd1, 0x04, 0x00, 0x88, 0x01, 0x00, 0x00, 0xc0, 0x30, 0x04,
   0x00, 0x08, 0x02, 0x00, 0x00, 0x60, 0xc0, 0x07, 0x00, 0x88, 0x07, 0x00,
   0x00, 0x30, 0x60, 0x00, 0x00, 0x4c, 0x0e, 0x00, 0x00, 0x18, 0x10, 0x00,
   0x00, 0x58, 0x18, 0x00, 0x00, 0x0c, 0x0c, 0x00, 0x00, 0x30, 0x30, 0x00,
   0x00, 0x04, 0x02, 0x00, 0x00, 0x00, 0x67, 0x00, 0x00, 0x02, 0x02, 0x00,
   0x00, 0xc0, 0x45, 0x00, 0x00, 0x71, 0x01, 0x00, 0x00, 0x40, 0xfc, 0x00,
   0x00, 0x91, 0x00, 0x00, 0x00, 0x40, 0x80, 0x00, 0x80, 0x08, 0x00, 0x00,
   0x00, 0x40, 0x00, 0x01, 0x80, 0x04, 0x00, 0x00, 0x00, 0x60, 0x00, 0x01,
   0x40, 0x02, 0x00, 0x00, 0x00, 0x10, 0x00, 0x02, 0x40, 0x06, 0x00, 0x00,
   0x00, 0x10, 0x00, 0x02, 0x40, 0x0c, 0x00, 0x00, 0x00, 0x10, 0x00, 0x04,
   0xe0, 0x08, 0x00, 0x00, 0x00, 0x10, 0x00, 0x04, 0xa0, 0x09, 0x00, 0x00,
   0x00, 0x10, 0x00, 0x04, 0x20, 0x0a, 0x00, 0x00, 0x00, 0x70, 0x00, 0x04,
   0x20, 0x0c, 0x03, 0x00, 0x00, 0xc0, 0x00, 0x0c, 0x30, 0xc8, 0x3d, 0x00,
   0x00, 0x80, 0x00, 0x08, 0x10, 0x40, 0x4c, 0x00, 0x00, 0x80, 0x3c, 0x08,
   0x10, 0x40, 0xc0, 0x00, 0x00, 0x00, 0x2f, 0x08, 0x10, 0x40, 0x80, 0x07,
   0x00, 0x00, 0x43, 0x08, 0x10, 0x60, 0x00, 0x04, 0x00, 0x00, 0x00, 0x08,
   0x10, 0x20, 0x00, 0x0c, 0x00, 0x00, 0x80, 0x08, 0x10, 0x20, 0x00, 0x38,
   0x00, 0x00, 0x80, 0x08, 0x10, 0x20, 0x00, 0xe0, 0x03, 0x00, 0x80, 0x08,
   0x30, 0x60, 0x00, 0x00, 0x06, 0x00, 0x80, 0x08, 0x20, 0x40, 0x00, 0x00,
   0x0c, 0x00, 0x80, 0x04, 0x20, 0x40, 0x00, 0x00, 0x06, 0x00, 0x80, 0x04,
   0x20, 0x80, 0x00, 0x00, 0x03, 0x00, 0x80, 0x04, 0x60, 0x80, 0x00, 0x00,
   0x03, 0x00, 0x80, 0x04, 0x40, 0x80, 0x03, 0x00, 0x01, 0x00, 0x40, 0x02,
   0x40, 0x00, 0x06, 0x00, 0x01, 0x00, 0x20, 0x02, 0x80, 0x00, 0x04, 0x80,
   0x01, 0x00, 0x10, 0x01, 0x80, 0x00, 0x04, 0xf0, 0x00, 0x00, 0x10, 0x01,
   0x00, 0x01, 0x04, 0x18, 0x00, 0x00, 0x90, 0x00, 0x00, 0x02, 0x04, 0x08,
   0x00, 0x00, 0x90, 0x00, 0x00, 0x02, 0x00, 0x08, 0x00, 0x00, 0x50, 0x00,
   0x00, 0x04, 0x08, 0x04, 0x00, 0x00, 0x38, 0x00, 0x00, 0x08, 0x08, 0x07,
   0x00, 0x00, 0x18, 0x00, 0x00, 0x10, 0x10, 0x01, 0x00, 0x00, 0x08, 0x00,
   0x00, 0x20, 0x10, 0x01, 0x00, 0x00, 0x04, 0x00, 0x00, 0x40, 0x20, 0x01,
   0x00, 0x00, 0x02, 0x00, 0x00, 0x80, 0x20, 0x01, 0x00, 0x00, 0x01, 0x00,
   0x00, 0x00, 0xc3, 0x01, 0x00, 0xc0, 0x00, 0x00, 0x00, 0x00, 0x8c, 0x01,
   0x00, 0x30, 0x00, 0x00, 0x00, 0x00, 0x10, 0x00, 0x00, 0x0c, 0x00, 0x00,
   0x00, 0x00, 0xf0, 0x00, 0x80, 0x03, 0x00, 0x00, 0x00, 0x00, 0x00, 0x1f,
   0xf8, 0x00, 0x00, 0x00, 0x00, 0x00, 0x00, 0xe0, 0x07, 0x00, 0x00, 0x00,
   0x00, 0x00, 0x00, 0x00, 0x00, 0x00, 0x00, 0x00, 0x00, 0x00, 0x00, 0x00,
   0x00, 0x00, 0x00, 0x00, 0x00, 0x00, 0x00, 0x00, 0x00, 0x00, 0x00, 0x00,
   0x00, 0x00, 0x00, 0x00, 0x00, 0x00, 0x00, 0x00 };
