#define mars_width 64
#define mars_height 64
static unsigned char mars_bits[] = {
   0x00, 0x00, 0x00, 0xe0, 0x07, 0x00, 0x00, 0x00, 0x00, 0x00, 0x00, 0xff,
   0xff, 0x01, 0x00, 0x00, 0x00, 0x00, 0xe0, 0xff, 0xff, 0x0f, 0x00, 0x00,
   0x00, 0x00, 0xfc, 0x01, 0x80, 0x3f, 0x00, 0x00, 0x00, 0x00, 0x3f, 0x00,
   0x80, 0xff, 0x00, 0x00, 0x00, 0x80, 0x0f, 0x00, 0xfc, 0xe0, 0x01, 0x00,
   0x00, 0xe0, 0x03, 0x0c, 0x07, 0xe0, 0x07, 0x00, 0x00, 0xf0, 0x9f, 0xc7,
   0x81, 0x3f, 0x0f, 0x00, 0x00, 0x78, 0xf0, 0x61, 0xf0, 0x0f, 0x1c, 0x00,
   0x00, 0x1c, 0x00, 0x38, 0x7c, 0x00, 0x38, 0x00, 0x00, 0x0e, 0x00, 0x0e,
   0x07, 0x00, 0x78, 0x00, 0x00, 0x07, 0x00, 0xc3, 0x01, 0x00, 0xf8, 0x00,
   0x80, 0xc3, 0x01, 0x70, 0x00, 0x00, 0xcc, 0x01, 0xc0, 0xf1, 0x07, 0x1e,
   0x00, 0x00, 0xc6, 0x03, 0xc0, 0x3d, 0x84, 0x07, 0x00, 0x00, 0xc3, 0x07,
   0xe0, 0x0f, 0xfc, 0x01, 0x00, 0x80, 0x41, 0x07, 0xf0, 0x03, 0x3c, 0x00,
   0x00, 0xc0, 0x60, 0x0e, 0xf0, 0x81, 0x03, 0x00, 0x00, 0x60, 0x30, 0x0c,
   0x78, 0x60, 0x00, 0x00, 0x00, 0x70, 0x30, 0x1c, 0x38, 0x18, 0x00, 0x00,
   0x00, 0x30, 0x18, 0x18, 0x18, 0x06, 0x00, 0x00, 0x00, 0x18, 0x0c, 0x38,
   0x1c, 0x03, 0x00, 0x00, 0x00, 0x0c, 0x06, 0x38, 0x8c, 0x01, 0x00, 0x00,
   0x00, 0x0e, 0x02, 0x30, 0xcc, 0x00, 0x00, 0x00, 0x00, 0x06, 0x02, 0x70,
   0x4e, 0x00, 0x00, 0x00, 0x80, 0x03, 0x02, 0x70, 0x6e, 0x00, 0x00, 0x3e,
   0xc0, 0x01, 0x02, 0x60, 0x36, 0x00, 0x00, 0xc3, 0xff, 0x00, 0x06, 0x60,
   0x36, 0x00, 0x00, 0x03, 0x1f, 0x00, 0x04, 0x60, 0x1e, 0x00, 0x00, 0x03,
   0x00, 0x00, 0x08, 0xe0, 0x1e, 0x1c, 0x00, 0x03, 0x00, 0x00, 0x30, 0xe0,
   0x0f, 0x1c, 0x00, 0x06, 0x00, 0x00, 0x60, 0xe0, 0x0f, 0x3c, 0x00, 0x06,
   0x00, 0x00, 0x80, 0xe1, 0x0f, 0x34, 0x00, 0x0c, 0x00, 0x00, 0x00, 0xee,
   0x0f, 0x64, 0x00, 0x18, 0x00, 0x00, 0x00, 0xf8, 0x0e, 0x44, 0x00, 0x38,
   0x00, 0x00, 0x00, 0xe0, 0x06, 0xc6, 0x00, 0x60, 0x00, 0x00, 0x00, 0xe0,
   0x06, 0x83, 0xf0, 0xc0, 0xff, 0x7f, 0x00, 0x67, 0x86, 0x00, 0xff, 0x01,
   0x1f, 0xc0, 0xff, 0x7f, 0x4e, 0x00, 0xf8, 0x03, 0x00, 0x00, 0x00, 0x78,
   0x2e, 0x00, 0x00, 0x03, 0x00, 0x00, 0x00, 0x70, 0x3c, 0x00, 0x00, 0x06,
   0x00, 0x00, 0x00, 0x71, 0x1c, 0x00, 0x00, 0x0c, 0x00, 0xf0, 0x03, 0x33,
   0x1c, 0x00, 0x00, 0x18, 0x38, 0x18, 0x8e, 0x3f, 0x18, 0x00, 0x00, 0x38,
   0xfe, 0x08, 0x58, 0x3c, 0x38, 0x00, 0x00, 0x30, 0x06, 0x0f, 0x70, 0x1c,
   0x38, 0x00, 0x00, 0xe0, 0x03, 0x0e, 0x20, 0x1c, 0x70, 0x00, 0x00, 0xc0,
   0x03, 0x00, 0x00, 0x0c, 0xf0, 0x7f, 0x00, 0x00, 0x02, 0x00, 0x00, 0x0e,
   0xe0, 0xe1, 0x03, 0x00, 0x00, 0x00, 0xfc, 0x07, 0xc0, 0x01, 0x0f, 0x00,
   0x00, 0xc0, 0x9f, 0x03, 0xc0, 0x01, 0xf8, 0xfc, 0x0f, 0xfe, 0x81, 0x03,
   0x80, 0x03, 0xe0, 0xff, 0xff, 0x0f, 0xc0, 0x01, 0x00, 0x07, 0x00, 0x00,
   0x00, 0x00, 0xe0, 0x00, 0x00, 0xfe, 0xff, 0x07, 0x00, 0x00, 0x70, 0x00,
   0x00, 0xfc, 0xff, 0xff, 0x0f, 0x00, 0x38, 0x00, 0x00, 0x78, 0x00, 0x00,
   0xff, 0x00, 0x1c, 0x00, 0x00, 0xf0, 0x00, 0x00, 0xc0, 0x03, 0x0f, 0x00,
   0x00, 0xe0, 0x03, 0x00, 0x00, 0xc6, 0x07, 0x00, 0x00, 0x80, 0x0f, 0x00,
   0x00, 0xe4, 0x01, 0x00, 0x00, 0x00, 0x3f, 0x00, 0x00, 0xfc, 0x00, 0x00,
   0x00, 0x00, 0xfc, 0x01, 0x80, 0x3f, 0x00, 0x00, 0x00, 0x00, 0xe0, 0xff,
   0xff, 0x0f, 0x00, 0x00, 0x00, 0x00, 0x00, 0xff, 0xff, 0x01, 0x00, 0x00,
   0x00, 0x00, 0x00, 0xe0, 0x07, 0x00, 0x00, 0x00 };
