#define mars2_width 64
#define mars2_height 64
static unsigned char mars2_bits[] = {
   0x00, 0x00, 0x00, 0x00, 0x00, 0x00, 0x00, 0x00, 0x00, 0x00, 0x00, 0xe0,
   0x07, 0x00, 0x00, 0x00, 0x00, 0x00, 0x00, 0xfe, 0xdf, 0x00, 0x00, 0x00,
   0x00, 0x00, 0xc0, 0x53, 0xd5, 0x07, 0x00, 0x00, 0x00, 0x00, 0x78, 0x00,
   0x80, 0x1f, 0x00, 0x00, 0x00, 0x00, 0x2e, 0x00, 0x80, 0x75, 0x00, 0x00,
   0x00, 0x00, 0x07, 0x00, 0x54, 0xe0, 0x00, 0x00, 0x00, 0xc0, 0x03, 0x04,
   0x02, 0xa0, 0x03, 0x00, 0x00, 0xe0, 0x1a, 0x45, 0x81, 0x0f, 0x06, 0x00,
   0x00, 0x30, 0xa0, 0x20, 0x70, 0x02, 0x0c, 0x00, 0x00, 0x18, 0x00, 0x08,
   0x14, 0x00, 0x18, 0x00, 0x00, 0x0c, 0x00, 0x04, 0x01, 0x00, 0x38, 0x00,
   0x00, 0x06, 0x00, 0x42, 0x01, 0x00, 0x64, 0x00, 0x00, 0x83, 0x01, 0x30,
   0x00, 0x00, 0xc4, 0x00, 0x80, 0x61, 0x02, 0x06, 0x00, 0x00, 0xc2, 0x01,
   0x80, 0x1b, 0x84, 0x03, 0x00, 0x80, 0x80, 0x03, 0xc0, 0x07, 0x38, 0x00,
   0x00, 0x80, 0x20, 0x03, 0xe0, 0x03, 0x00, 0x00, 0x00, 0x20, 0x10, 0x06,
   0xe0, 0x00, 0x01, 0x00, 0x00, 0x20, 0x10, 0x04, 0x70, 0x10, 0x00, 0x00,
   0x00, 0x10, 0x08, 0x0c, 0x10, 0x00, 0x00, 0x00, 0x00, 0x08, 0x04, 0x08,
   0x30, 0x04, 0x00, 0x00, 0x00, 0x08, 0x02, 0x1c, 0x18, 0x01, 0x00, 0x00,
   0x00, 0x04, 0x00, 0x18, 0x08, 0x01, 0x00, 0x00, 0x00, 0x02, 0x00, 0x10,
   0x98, 0x00, 0x00, 0x00, 0x00, 0x01, 0x00, 0x38, 0x5c, 0x00, 0x00, 0x14,
   0xc0, 0x01, 0x00, 0x20, 0x44, 0x00, 0x00, 0x82, 0x6a, 0x00, 0x02, 0x30,
   0x2c, 0x00, 0x00, 0x02, 0x0f, 0x00, 0x00, 0x20, 0x2c, 0x00, 0x00, 0x03,
   0x00, 0x00, 0x00, 0x30, 0x1c, 0x10, 0x00, 0x02, 0x00, 0x00, 0x10, 0x70,
   0x1e, 0x18, 0x00, 0x02, 0x00, 0x00, 0x20, 0x60, 0x0e, 0x38, 0x00, 0x04,
   0x00, 0x00, 0x80, 0x70, 0x1e, 0x20, 0x00, 0x04, 0x00, 0x00, 0x00, 0x72,
   0x1e, 0x40, 0x00, 0x18, 0x00, 0x00, 0x00, 0x74, 0x0c, 0x08, 0x00, 0x10,
   0x00, 0x00, 0x00, 0x70, 0x08, 0x84, 0x00, 0x40, 0x00, 0x00, 0x00, 0x60,
   0x04, 0x00, 0xe0, 0x80, 0x5f, 0x15, 0x00, 0x33, 0x0c, 0x01, 0xfa, 0x01,
   0x08, 0x40, 0x55, 0x3d, 0x0c, 0x00, 0xa0, 0x03, 0x00, 0x00, 0x00, 0x38,
   0x58, 0x00, 0x00, 0x02, 0x00, 0x00, 0x00, 0x30, 0x38, 0x00, 0x00, 0x04,
   0x00, 0x00, 0x00, 0x18, 0x18, 0x00, 0x00, 0x08, 0x00, 0x30, 0x81, 0x11,
   0x30, 0x00, 0x00, 0x10, 0x38, 0x08, 0x04, 0x1e, 0x30, 0x00, 0x00, 0x30,
   0x06, 0x00, 0x28, 0x0c, 0x30, 0x00, 0x00, 0x20, 0x02, 0x07, 0x10, 0x0e,
   0x60, 0x00, 0x00, 0xc0, 0x03, 0x02, 0x00, 0x04, 0xe0, 0x00, 0x00, 0x00,
   0x02, 0x00, 0x00, 0x06, 0xc0, 0xe7, 0x00, 0x00, 0x00, 0x00, 0x00, 0x03,
   0x80, 0x01, 0x02, 0x00, 0x00, 0x00, 0xee, 0x01, 0x80, 0x01, 0x12, 0x00,
   0x00, 0xe0, 0x80, 0x01, 0x00, 0x03, 0xe0, 0xfe, 0x0f, 0x0f, 0xc0, 0x00,
   0x00, 0x06, 0x00, 0x00, 0x10, 0x00, 0x60, 0x00, 0x00, 0x8c, 0x90, 0x04,
   0x00, 0x00, 0x30, 0x00, 0x00, 0xf8, 0xff, 0x4f, 0x02, 0x00, 0x18, 0x00,
   0x00, 0x70, 0x00, 0x00, 0x2f, 0x00, 0x0c, 0x00, 0x00, 0xe0, 0x00, 0x00,
   0xc0, 0x00, 0x06, 0x00, 0x00, 0xc0, 0x01, 0x00, 0x00, 0x82, 0x03, 0x00,
   0x00, 0x00, 0x0b, 0x00, 0x00, 0xe0, 0x00, 0x00, 0x00, 0x00, 0x1e, 0x00,
   0x00, 0x6c, 0x00, 0x00, 0x00, 0x00, 0x78, 0x01, 0x80, 0x1e, 0x00, 0x00,
   0x00, 0x00, 0xc0, 0xd5, 0xea, 0x07, 0x00, 0x00, 0x00, 0x00, 0x00, 0xfe,
   0xdf, 0x00, 0x00, 0x00, 0x00, 0x00, 0x00, 0xe0, 0x07, 0x00, 0x00, 0x00,
   0x00, 0x00, 0x00, 0x00, 0x00, 0x00, 0x00, 0x00 };
