#define mars_landscape_2_width 128
#define mars_landscape_2_height 64
static unsigned char mars_landscape_2_bits[] = {
   0x00, 0x00, 0x00, 0x00, 0x00, 0x00, 0x00, 0x00, 0x00, 0x00, 0x00, 0x00,
   0x00, 0x00, 0x00, 0x00, 0x00, 0x00, 0x00, 0x00, 0x00, 0x00, 0x00, 0x00,
   0x00, 0x00, 0x00, 0x00, 0x00, 0x00, 0x00, 0x00, 0x00, 0x00, 0x00, 0x00,
   0x00, 0x00, 0x00, 0x00, 0x00, 0x00, 0x00, 0x00, 0x00, 0x00, 0x00, 0x00,
   0x00, 0x00, 0x00, 0x00, 0x00, 0x00, 0x00, 0x00, 0x00, 0x00, 0x00, 0x00,
   0x00, 0x00, 0x00, 0x00, 0x00, 0x00, 0x00, 0x00, 0x00, 0x00, 0x00, 0x00,
   0x00, 0x00, 0x00, 0x00, 0x00, 0x00, 0x00, 0x00, 0x00, 0x00, 0x00, 0x00,
   0x00, 0x00, 0x00, 0x00, 0x00, 0x00, 0x00, 0x00, 0x00, 0x00, 0x00, 0x00,
   0x00, 0x00, 0x00, 0x00, 0x00, 0x00, 0x00, 0x00, 0x00, 0x00, 0x00, 0x00,
   0x00, 0x00, 0x00, 0x00, 0x00, 0x00, 0x00, 0x00, 0x00, 0x00, 0x00, 0x00,
   0x00, 0x00, 0x00, 0x00, 0x00, 0x00, 0x00, 0x00, 0x00, 0x00, 0x00, 0x00,
   0x00, 0xa0, 0xaa, 0x00, 0x00, 0x00, 0x00, 0x00, 0x00, 0x00, 0x00, 0x00,
   0x00, 0x00, 0x00, 0x00, 0x00, 0x10, 0x00, 0x00, 0x00, 0x00, 0x00, 0x00,
   0x00, 0x00, 0x00, 0x00, 0x00, 0x00, 0x00, 0x00, 0x00, 0x10, 0x00, 0x01,
   0x00, 0x00, 0x00, 0x00, 0x00, 0x00, 0x00, 0x00, 0x00, 0x00, 0x00, 0x00,
   0x00, 0x08, 0x49, 0x02, 0x00, 0x00, 0x00, 0x00, 0x00, 0x00, 0x00, 0x00,
   0x00, 0x00, 0x00, 0x00, 0x00, 0x00, 0x80, 0x01, 0x00, 0x00, 0x00, 0x00,
   0x00, 0x00, 0x00, 0x00, 0x00, 0x00, 0x00, 0x00, 0x00, 0x08, 0x80, 0x02,
   0x00, 0x00, 0x00, 0x00, 0x00, 0x00, 0x00, 0x00, 0x00, 0x00, 0x00, 0x00,
   0x00, 0x00, 0x00, 0x01, 0x00, 0x00, 0x00, 0x00, 0x00, 0x00, 0x00, 0x00,
   0x00, 0x00, 0x00, 0x00, 0x00, 0x68, 0x40, 0x01, 0x00, 0x00, 0x3f, 0x00,
   0x00, 0x00, 0x40, 0x41, 0x00, 0x00, 0x00, 0x00, 0x00, 0x90, 0xdf, 0x00,
   0x00, 0x00, 0x00, 0x00, 0x00, 0x00, 0x0a, 0x04, 0x00, 0x00, 0x00, 0x00,
   0x00, 0xb0, 0xd1, 0x00, 0x00, 0x00, 0x01, 0x00, 0x50, 0x52, 0x00, 0x00,
   0x00, 0x00, 0x00, 0x00, 0x00, 0x00, 0x02, 0x00, 0x00, 0x00, 0x00, 0x80,
   0x02, 0x00, 0x00, 0x00, 0x00, 0x00, 0x00, 0x00, 0x00, 0x50, 0xb1, 0xaa,
   0xaa, 0xaa, 0xa1, 0x74, 0x00, 0x00, 0x00, 0x00, 0x00, 0x00, 0xd4, 0x56,
   0x25, 0x01, 0x00, 0x00, 0x00, 0x00, 0x00, 0x00, 0xa5, 0xda, 0x0a, 0x00,
   0x54, 0x55, 0x00, 0x00, 0x00, 0x00, 0x13, 0x00, 0x00, 0x00, 0x29, 0x10,
   0x00, 0x00, 0x00, 0xa9, 0x00, 0x00, 0x00, 0x00, 0x00, 0x80, 0x3f, 0x00,
   0x00, 0x00, 0x1e, 0x78, 0x01, 0x00, 0x00, 0x00, 0x00, 0x00, 0x00, 0x00,
   0x00, 0x80, 0x20, 0x00, 0x00, 0x00, 0x1a, 0x58, 0x66, 0x01, 0x00, 0x00,
   0x00, 0x00, 0x00, 0x00, 0x00, 0x00, 0x0a, 0x00, 0x00, 0x00, 0x1f, 0x96,
   0x54, 0x02, 0x00, 0x00, 0x00, 0x00, 0x00, 0x00, 0x00, 0x00, 0x00, 0x00,
   0x00, 0x00, 0x14, 0x06, 0x35, 0x02, 0x00, 0x00, 0x00, 0x00, 0x00, 0x00,
   0x00, 0x00, 0x08, 0x00, 0x00, 0xc0, 0x90, 0x85, 0x34, 0x05, 0x00, 0x00,
   0x00, 0x00, 0x00, 0x00, 0x00, 0x00, 0x03, 0x00, 0x00, 0x00, 0xd3, 0x42,
   0x6a, 0x00, 0x00, 0x00, 0x00, 0x00, 0x00, 0x00, 0x00, 0xc0, 0x08, 0x00,
   0x00, 0x20, 0x70, 0x21, 0x65, 0x08, 0x00, 0x00, 0x00, 0x00, 0x00, 0x00,
   0x00, 0x00, 0x03, 0x00, 0x00, 0x00, 0xb1, 0x91, 0x30, 0x00, 0x00, 0x00,
   0x00, 0x00, 0x00, 0x00, 0x00, 0x00, 0x08, 0x00, 0x80, 0x52, 0x19, 0x4c,
   0xfd, 0x10, 0x00, 0x00, 0x00, 0x00, 0x00, 0x00, 0x00, 0x00, 0x00, 0x00,
   0xc0, 0x86, 0x7f, 0xef, 0x20, 0x00, 0x00, 0x00, 0x00, 0x00, 0x00, 0x00,
   0x00, 0x00, 0x0f, 0x00, 0x40, 0x30, 0x92, 0x3a, 0x22, 0x05, 0x00, 0x00,
   0x00, 0x00, 0x00, 0x00, 0x00, 0x00, 0x09, 0x80, 0x7f, 0x10, 0x02, 0x68,
   0x00, 0x00, 0x00, 0x00, 0x00, 0x00, 0x00, 0x00, 0x00, 0x00, 0x10, 0xf8,
   0xff, 0x5d, 0x00, 0xe4, 0x11, 0x03, 0x00, 0x00, 0x00, 0x00, 0x00, 0x00,
   0x00, 0x00, 0x10, 0x3c, 0x40, 0xa3, 0x01, 0x84, 0x00, 0x01, 0x00, 0x00,
   0x00, 0x00, 0x00, 0x00, 0x00, 0x80, 0x90, 0x00, 0x00, 0x56, 0x0a, 0xe8,
   0x04, 0x00, 0x00, 0x00, 0x00, 0x00, 0x00, 0x00, 0x00, 0xb0, 0x10, 0x00,
   0x00, 0xe8, 0xfe, 0x88, 0x86, 0x00, 0x00, 0x00, 0x00, 0x00, 0x00, 0x00,
   0x00, 0xdf, 0x11, 0x00, 0x00, 0x00, 0xb4, 0x7f, 0x00, 0x00, 0x00, 0x00,
   0x00, 0x00, 0x00, 0x00, 0x00, 0x5a, 0x0e, 0x00, 0x00, 0x00, 0xf0, 0x0f,
   0x80, 0x00, 0x00, 0x00, 0x00, 0x00, 0x00, 0x00, 0x80, 0x63, 0xa0, 0x00,
   0x00, 0x00, 0xe8, 0x00, 0x00, 0x00, 0x00, 0x00, 0x00, 0x00, 0x00, 0x00,
   0x00, 0xc1, 0x00, 0x04, 0x00, 0x00, 0x04, 0x00, 0x80, 0x00, 0x00, 0x00,
   0x00, 0x00, 0x00, 0x00, 0x80, 0x03, 0x00, 0xa0, 0x00, 0xa0, 0x24, 0x00,
   0x00, 0x00, 0x00, 0x00, 0x00, 0x00, 0x00, 0x00, 0x00, 0xad, 0x00, 0xc0,
   0x07, 0x1c, 0x00, 0x00, 0x80, 0x00, 0x00, 0x00, 0x00, 0x00, 0x00, 0x00,
   0x87, 0x65, 0x00, 0x18, 0xfc, 0xe3, 0x20, 0x00, 0x00, 0x00, 0x18, 0x00,
   0x00, 0x00, 0x00, 0x00, 0x2d, 0x64, 0x02, 0xa8, 0x68, 0x18, 0xa4, 0x00,
   0x00, 0x00, 0x10, 0x00, 0x00, 0x00, 0x00, 0x00, 0x05, 0x51, 0x04, 0xb0,
   0x63, 0x40, 0x8c, 0x00, 0x40, 0x00, 0x28, 0x00, 0x00, 0x00, 0x00, 0x00,
   0x41, 0xd2, 0x08, 0x08, 0x67, 0x04, 0x80, 0x02, 0x10, 0x00, 0x0a, 0x00,
   0x00, 0x00, 0x00, 0x00, 0x19, 0x40, 0x02, 0xa8, 0x6a, 0x00, 0x24, 0x52,
   0x02, 0xa0, 0x30, 0x00, 0x00, 0x00, 0x00, 0x80, 0x07, 0x82, 0x27, 0x08,
   0x62, 0x20, 0xc8, 0x02, 0x1e, 0x0c, 0x26, 0x00, 0x00, 0x00, 0x00, 0x80,
   0x58, 0x88, 0x8c, 0x77, 0x7d, 0x02, 0x88, 0xad, 0xc0, 0xe1, 0x41, 0x00,
   0x00, 0x00, 0x00, 0x00, 0x83, 0x88, 0xb0, 0x0d, 0x41, 0x10, 0x60, 0x01,
   0xcc, 0x56, 0x24, 0x00, 0x00, 0x00, 0x00, 0x80, 0x3f, 0x81, 0xc0, 0x0c,
   0x40, 0x01, 0x12, 0x00, 0x90, 0xe1, 0x0f, 0x00, 0x00, 0x00, 0x00, 0x20,
   0x30, 0x01, 0xc9, 0x10, 0x41, 0x09, 0x01, 0x00, 0x50, 0x40, 0x6a, 0x00,
   0x00, 0x00, 0x00, 0x20, 0x58, 0x05, 0xe1, 0xd4, 0x40, 0xa8, 0x04, 0x00,
   0x28, 0x30, 0x91, 0x01, 0x00, 0x00, 0x00, 0x90, 0x54, 0x04, 0xc5, 0x0e,
   0xe8, 0x44, 0x00, 0x00, 0x00, 0x10, 0x50, 0x02, 0x00, 0x00, 0x00, 0x00,
   0x56, 0x00, 0x4c, 0x05, 0xe0, 0x23, 0x02, 0x00, 0x0a, 0x90, 0xa0, 0x00,
   0x00, 0x00, 0x00, 0x28, 0x9a, 0x00, 0xf0, 0x02, 0x00, 0x9e, 0x00, 0x00,
   0x01, 0x10, 0x25, 0x04, 0x00, 0x00, 0x00, 0x08, 0x26, 0x02, 0x00, 0x00,
   0x00, 0x0a, 0x00, 0x80, 0x0e, 0x00, 0x70, 0x00, 0x00, 0x00, 0x00, 0x50,
   0x46, 0x02, 0x00, 0x00, 0x00, 0x4a, 0x00, 0x80, 0xe9, 0x30, 0x70, 0x04,
   0x00, 0x00, 0x00, 0x10, 0x77, 0x00, 0x00, 0x00, 0x00, 0x29, 0x00, 0x40,
   0x00, 0x13, 0xb1, 0x00, 0x00, 0x00, 0x00, 0x20, 0x46, 0x00, 0x00, 0x00,
   0x00, 0x1b, 0x00, 0x20, 0x11, 0x36, 0x30, 0x00, 0x00, 0x00, 0x00, 0x60,
   0x7a, 0x01, 0x00, 0x00, 0x90, 0x00, 0x00, 0x20, 0x80, 0x52, 0x54, 0x04,
   0x00, 0x00, 0x00, 0x00, 0x7f, 0x01, 0x00, 0x00, 0x04, 0x31, 0x00, 0x20,
   0x89, 0xc0, 0x11, 0x02 };
